<?xml version="1.0" encoding="UTF-8" standalone="no"?>
<svg
   xmlns:dc="http://purl.org/dc/elements/1.1/"
   xmlns:cc="http://creativecommons.org/ns#"
   xmlns:rdf="http://www.w3.org/1999/02/22-rdf-syntax-ns#"
   xmlns:svg="http://www.w3.org/2000/svg"
   xmlns="http://www.w3.org/2000/svg"
   xmlns:sodipodi="http://sodipodi.sourceforge.net/DTD/sodipodi-0.dtd"
   xmlns:inkscape="http://www.inkscape.org/namespaces/inkscape"
   id="Ebene_1"
   data-name="Ebene 1"
   viewBox="0 0 166.29922 166.29922"
   version="1.1"
   sodipodi:docname="SelfHelp_Icon_Positive.svg"
   width="44mm"
   height="44mm"
   inkscape:version="0.92.5 (2060ec1f9f, 2020-04-08)">
  <metadata
     id="metadata51">
    <rdf:RDF>
      <cc:Work
         rdf:about="">
        <dc:format>image/svg+xml</dc:format>
        <dc:type
           rdf:resource="http://purl.org/dc/dcmitype/StillImage" />
        <dc:title></dc:title>
      </cc:Work>
    </rdf:RDF>
  </metadata>
  <sodipodi:namedview
     pagecolor="#ffffff"
     bordercolor="#666666"
     borderopacity="1"
     objecttolerance="10"
     gridtolerance="10"
     guidetolerance="10"
     inkscape:pageopacity="0"
     inkscape:pageshadow="2"
     inkscape:window-width="2560"
     inkscape:window-height="1403"
     id="namedview49"
     showgrid="false"
     units="mm"
     inkscape:zoom="0.92505489"
     inkscape:cx="148.2161"
     inkscape:cy="127.56"
     inkscape:window-x="1920"
     inkscape:window-y="0"
     inkscape:window-maximized="1"
     inkscape:current-layer="Ebene_1" />
  <defs
     id="defs4">
    <style
       id="style2">.cls-1{fill:#1d1d1b;}</style>
  </defs>
  <g
     id="g871"
     transform="translate(-58.185394,-10.100394)">
    <path
       id="path6"
       d="m 165.25,16.25 v 20.93 l -11.42,11.94 a 29.48,29.48 0 0 1 3.63,2.06 L 169.3,38.81 V 16.25 Z"
       class="cls-1"
       inkscape:connector-curvature="0"
       style="fill:#1d1d1b" />
    <path
       id="path8"
       d="M 130.86,48.43 120.1,37.18 V 16.25 h -4 v 22.56 l 11,11.51 a 29.87,29.87 0 0 1 3.76,-1.89 z"
       class="cls-1"
       inkscape:connector-curvature="0"
       style="fill:#1d1d1b" />
    <path
       id="path10"
       d="M 141.18,58.3 A 53.06,53.06 0 0 1 162.93,63 24.45,24.45 0 0 0 120.44,62.54 53.27,53.27 0 0 1 141.18,58.3 Z"
       class="cls-1"
       inkscape:connector-curvature="0"
       style="fill:#1d1d1b" />
    <path
       id="path12"
       d="m 141.55,94.83 c -0.49,0 -1,0 -1.46,0 a 149.59,149.59 0 0 1 -16.7,42 30.83,30.83 0 0 0 17.79,5.7 30.44,30.44 0 0 0 17.51,-5.53 151.65,151.65 0 0 1 -16.9,-42.19 z"
       class="cls-1"
       inkscape:connector-curvature="0"
       style="fill:#1d1d1b" />
    <path
       id="path14"
       d="m 106.15,77 a 49.37,49.37 0 0 0 3.53,72.9 A 144.67,144.67 0 0 0 136,94.48 44,44 0 0 1 106.15,77 Z"
       class="cls-1"
       inkscape:connector-curvature="0"
       style="fill:#1d1d1b" />
    <path
       id="path16"
       d="M 176.64,77.4 A 44,44 0 0 1 145.89,94.6 148,148 0 0 0 172.5,150.25 48.71,48.71 0 0 0 190.6,111.78 49.28,49.28 0 0 0 176.64,77.4 Z"
       class="cls-1"
       inkscape:connector-curvature="0"
       style="fill:#1d1d1b" />
    <path
       id="path18"
       d="m 103.39,74.41 c 1,-1 1.94,-1.89 3,-2.78 L 90.17,55.52 74,71.74 76.86,74.61 90.18,61.24 Z"
       class="cls-1"
       inkscape:connector-curvature="0"
       style="fill:#1d1d1b" />
    <path
       id="path20"
       d="M 91.9,92 H 81.7 l -6.57,6.6 2.87,2.87 5.39,-5.39 h 7.09 C 90.89,94.71 91.37,93.36 91.9,92 Z"
       class="cls-1"
       inkscape:connector-curvature="0"
       style="fill:#1d1d1b" />
    <path
       id="path22"
       d="m 94.28,136.41 -8.28,8.28 -0.1,25.54 h 4 L 90,146.36 96.38,140 c -0.74,-1.15 -1.45,-2.35 -2.1,-3.59 z"
       class="cls-1"
       inkscape:connector-curvature="0"
       style="fill:#1d1d1b" />
    <path
       id="path24"
       d="m 196.52,144.69 -8.26,-8.26 c -0.66,1.24 -1.36,2.44 -2.11,3.62 l 6.33,6.33 0.1,23.87 h 4 z"
       class="cls-1"
       inkscape:connector-curvature="0"
       style="fill:#1d1d1b" />
    <path
       id="path26"
       d="m 200.3,92 h -9.65 c 0.52,1.33 1,2.68 1.43,4 h 6.54 l 5.92,5.92 2.86,-2.86 z"
       class="cls-1"
       inkscape:connector-curvature="0"
       style="fill:#1d1d1b" />
    <path
       id="path28"
       d="m 192.2,55.57 -16,16 c 1,0.89 2,1.81 3,2.78 l 13.09,-13.09 13.53,13.39 2.85,-2.88 z"
       class="cls-1"
       inkscape:connector-curvature="0"
       style="fill:#1d1d1b" />
    <path
       id="path30"
       d="m 113.84,79.6 c 0.56,0.53 1.13,1.05 1.71,1.55 h 0.06 c 0.57,0.49 1.16,1 1.75,1.42 l 0.12,0.09 c 0.58,0.43 1.17,0.86 1.77,1.26 l 0.2,0.13 q 0.87,0.59 1.77,1.11 l 0.29,0.17 q 0.85,0.5 1.74,1 l 0.4,0.2 c 0.56,0.28 1.13,0.55 1.7,0.8 l 0.52,0.22 c 0.55,0.24 1.09,0.46 1.64,0.67 l 0.67,0.23 c 0.52,0.19 1,0.37 1.56,0.53 l 0.81,0.23 c 0.49,0.14 1,0.28 1.46,0.4 l 1,0.22 c 0.45,0.1 0.9,0.2 1.35,0.28 l 1.17,0.19 c 0.4,0.06 0.8,0.13 1.2,0.18 0.4,0.05 1,0.09 1.47,0.13 0.31,0 0.62,0.07 0.93,0.09 0.81,0.05 1.63,0.07 2.44,0.07 0.81,0 1.63,0 2.43,-0.07 l 0.87,-0.08 c 0.51,0 1,-0.08 1.53,-0.14 l 1.07,-0.16 c 0.43,-0.06 0.86,-0.12 1.29,-0.2 0.43,-0.08 0.79,-0.16 1.18,-0.25 l 1.14,-0.25 c 0.42,-0.1 0.84,-0.22 1.26,-0.34 l 1,-0.28 c 0.45,-0.14 0.89,-0.29 1.33,-0.45 l 0.89,-0.31 c 0.46,-0.17 0.92,-0.36 1.37,-0.55 0.26,-0.11 0.53,-0.21 0.78,-0.33 0.48,-0.21 0.95,-0.43 1.42,-0.66 l 0.68,-0.34 c 0.48,-0.25 1,-0.51 1.45,-0.78 l 0.57,-0.33 c 0.49,-0.29 1,-0.6 1.47,-0.91 l 0.48,-0.31 c 0.5,-0.34 1,-0.69 1.49,-1.05 l 0.38,-0.29 c 0.51,-0.38 1,-0.77 1.49,-1.18 l 0.3,-0.25 c 0.5,-0.43 1,-0.87 1.49,-1.33 l 0.22,-0.21 q 0.75,-0.72 1.47,-1.47 l 0.14,-0.15 c 0.49,-0.54 1,-1.08 1.45,-1.64 l 0.07,-0.08 c 0.48,-0.59 1,-1.19 1.41,-1.8 a 49.27,49.27 0 0 0 -64.52,-0.4 40.24,40.24 0 0 0 4.67,5.39 z"
       class="cls-1"
       inkscape:connector-curvature="0"
       style="fill:#1d1d1b" />
  </g>
</svg>
