<?xml version="1.0" encoding="UTF-8" standalone="no"?>
<svg
   xmlns:dc="http://purl.org/dc/elements/1.1/"
   xmlns:cc="http://creativecommons.org/ns#"
   xmlns:rdf="http://www.w3.org/1999/02/22-rdf-syntax-ns#"
   xmlns:svg="http://www.w3.org/2000/svg"
   xmlns="http://www.w3.org/2000/svg"
   xmlns:sodipodi="http://sodipodi.sourceforge.net/DTD/sodipodi-0.dtd"
   xmlns:inkscape="http://www.inkscape.org/namespaces/inkscape"
   id="Ebene_1"
   data-name="Ebene 1"
   viewBox="0 0 166.29922 166.29922"
   version="1.1"
   sodipodi:docname="SelfHelp_Icon_Negative.svg"
   width="44mm"
   height="44mm"
   inkscape:version="0.92.5 (2060ec1f9f, 2020-04-08)">
  <metadata
     id="metadata27">
    <rdf:RDF>
      <cc:Work
         rdf:about="">
        <dc:format>image/svg+xml</dc:format>
        <dc:type
           rdf:resource="http://purl.org/dc/dcmitype/StillImage" />
        <dc:title></dc:title>
      </cc:Work>
    </rdf:RDF>
  </metadata>
  <sodipodi:namedview
     pagecolor="#ffffff"
     bordercolor="#666666"
     borderopacity="1"
     objecttolerance="10"
     gridtolerance="10"
     guidetolerance="10"
     inkscape:pageopacity="0"
     inkscape:pageshadow="2"
     inkscape:window-width="2560"
     inkscape:window-height="1403"
     id="namedview25"
     showgrid="false"
     units="mm"
     inkscape:zoom="0.92505489"
     inkscape:cx="148.2161"
     inkscape:cy="127.56"
     inkscape:window-x="1920"
     inkscape:window-y="0"
     inkscape:window-maximized="1"
     inkscape:current-layer="Ebene_1" />
  <defs
     id="defs4">
    <style
       id="style2">.cls-1{fill:#fff;}</style>
  </defs>
  <path
     class="cls-1"
     d="m 132.79961,81.694607 a 53.84,53.84 0 0 0 -11.43,-17.5 l 12.63,-12.64 13.36,13.21 3.16,-3.2 -16.53,-16.36 -15.9,15.91 a 53.81,53.81 0 0 0 -7.42,-5.39 28.65,28.65 0 0 0 -11.000004,-14.61 l 11.700004,-12.23 V 6.2746068 h -4.5 V 27.084607 l -11.240004,11.72 a 28.75,28.75 0 0 0 -12.2,-2.78 28.44,28.44 0 0 0 -10.61,2.07 l -10.55,-11.01 V 6.2746068 h -4.5 V 28.884607 l 10.86,11.35 a 28.79,28.79 0 0 0 -12.25,15 54.09,54.09 0 0 0 -8.29,5.79 l -15.95,-15.87 -16.36,16.36 3.18,3.18 13.18,-13.18 12.67,12.61 a 53.9,53.9 0 0 0 -11.54,17.57 h -9.69 l -6.62,6.63 3.18,3.179999 5.3,-5.309999 h 6.28 a 53.76,53.76 0 0 0 3.85,40.370003 l -7.83,7.84 -0.11,25.62 h 4.5 l 0.1,-23.74 5.68,-5.68 a 54,54 0 0 0 12.67,13.7 l 0.3,0.23 1.76,1 1.07,-1.61 a 150,150 0 0 0 9.56,-13.49 35.08,35.08 0 0 0 19.81,6.16 34.55,34.55 0 0 0 19.510004,-6 149.16,149.16 0 0 0 9.62,13.62 l 1.3,1.53 1.45,-0.91 0.39,-0.22 a 52.27,52.27 0 0 0 13.07,-14 l 5.64,5.64 0.1,23.74 h 4.5 l -0.11,-25.59 -7.82,-7.82 a 54.27,54.27 0 0 0 5.95,-25 53.64,53.64 0 0 0 -2.27,-15.440003 h 5.86 l 5.84,5.849999 3.19,-3.179999 -7.17,-7.17 z m -49.370004,-41.13 a 24.27,24.27 0 0 1 20.840004,11.84 53.46,53.46 0 0 0 -41.390004,-0.38 24.33,24.33 0 0 1 20.55,-11.46 z m -0.37,12 a 48.87,48.87 0 0 1 32.130004,12 39.66,39.66 0 0 1 -63.810004,-0.4 48.84,48.84 0 0 1 31.68,-11.63 z m -31.48,86.800003 a 49.06,49.06 0 0 1 -3.52,-72.100003 44.16,44.16 0 0 0 29.55,17.32 144.15,144.15 0 0 1 -26.03,54.750003 z m 31.48,-7.24 a 30.51,30.51 0 0 1 -17.47,-5.54 149.39,149.39 0 0 0 16.56,-41.640003 c 0.43,0 0.85,0 1.28,0 v 0 a 151.72,151.72 0 0 0 16.840004,41.820003 30.06,30.06 0 0 1 -17.210004,5.33 z m 31.300004,7.62 a 147.25,147.25 0 0 1 -26.320004,-55.000003 44.15,44.15 0 0 0 30.440004,-17 49,49 0 0 1 13.68,34.000003 48.39,48.39 0 0 1 -17.8,37.97 z"
     id="path6"
     inkscape:connector-curvature="0"
     style="fill:#ffffff" />
</svg>
