<?xml version="1.0" encoding="UTF-8" standalone="no"?>
<svg xmlns:dc="http://purl.org/dc/elements/1.1/" xmlns:cc="http://creativecommons.org/ns#" xmlns:rdf="http://www.w3.org/1999/02/22-rdf-syntax-ns#" xmlns:svg="http://www.w3.org/2000/svg" xmlns="http://www.w3.org/2000/svg" xmlns:sodipodi="http://sodipodi.sourceforge.net/DTD/sodipodi-0.dtd" xmlns:inkscape="http://www.inkscape.org/namespaces/inkscape" id="Ebene_1" data-name="Ebene 1" viewBox="0 0 166.29922 166.29922" version="1.1" width="44mm" height="44mm">
  <metadata id="metadata37">
    
  </metadata>
  
  <defs id="defs4">
    <style id="style2">.cls-1{fill:#1d1d1b;}.cls-2{fill:#fff;}</style>
  </defs>
  <g id="g850" transform="translate(-58.725394,78.845368)">
    <path style="fill:#1d1d1b" id="path22" d="m 209.25,-17.270761 -3.17,3.2 -13.35,-13.21 -12.64,12.63 a 53.8,53.8 0 0 1 11.44,17.5100001 h 9.36 l 7.16,7.1599999 -3.18,3.159999 L 199,7.3592391 h -5.92 a 53.2,53.2 0 0 1 2.28,15.4399989 54.38,54.38 0 0 1 -5.95,24.94 l 7.82,7.82 0.1,25.59 h -4.5 l -0.09,-23.74 -5.65,-5.64 a 52.08,52.08 0 0 1 -13.06,14 l -0.39,0.23 -1.46,0.9 -1.29,-1.52 a 150,150 0 0 1 -9.62,-13.62 34.57,34.57 0 0 1 -19.52,5.95 35,35 0 0 1 -19.75,-6.12 149.89,149.89 0 0 1 -9.53,13.47 l -1.07,1.61 -1.76,-1 -0.3,-0.23 a 53.79,53.79 0 0 1 -12.68,-13.69 l -5.66,5.68 -0.15,23.75 h -4.5 l 0.11,-25.59 7.84,-7.83 A 53.63,53.63 0 0 1 90.45,7.3892391 h -6.28 l -5.31,5.3099989 -3.18,-3.2199989 6.63,-6.62 H 92 a 53.69,53.69 0 0 1 11.5,-17.5700001 l -12.63,-12.62 -13.19,13.18 -3.18,-3.18 16.36,-16.36 16,15.9 a 53.74,53.74 0 0 1 8.25,-5.85 28.76,28.76 0 0 1 12.25,-15 l -10.9,-11.31 v -22.62 H 121 v 20.81 l 10.58,11 a 28.34,28.34 0 0 1 22.81,0.68 l 11.23,-11.73 v -20.76 h 4.5 v 22.62 l -11.7,12.22 a 28.67,28.67 0 0 1 11,14.61 54,54 0 0 1 7.42,5.39 l 15.9,-15.9 z m -18.36,40.069999 a 48.89,48.89 0 0 0 -13.69,-33.999999 44.11,44.11 0 0 1 -30.44,17.0000001 147.44,147.44 0 0 0 26.32,54.9999989 48.43,48.43 0 0 0 17.81,-38 z M 142.15,1.6092391 a 39.65,39.65 0 0 0 31.76,-15.9000001 49,49 0 0 0 -63.8,-0.4 39.63,39.63 0 0 0 32.04,16.3000001 z M 163,-26.440761 a 24.21,24.21 0 0 0 -41.4,-0.38 53.48,53.48 0 0 1 41.37,0.41 z m -21.19,79.689999 a 30.12,30.12 0 0 0 17.19,-5.33 151.65,151.65 0 0 1 -16.8,-41.8099989 v 0 c -0.42,0 -0.85,0 -1.27,0 a 149.88,149.88 0 0 1 -16.56,41.6499989 30.57,30.57 0 0 0 17.41,5.49 z m -31.48,7.24 a 144.27,144.27 0 0 0 26,-54.7699989 44.19,44.19 0 0 1 -29.56,-17.3300001 49.06,49.06 0 0 0 3.52,72.099999 z" class="cls-1"/>
    <path style="fill:#ffffff" id="path24" d="M 177.2,-11.160761 A 49.31,49.31 0 0 1 173.08,60.839238 147.44,147.44 0 0 1 146.76,5.8392391 44.11,44.11 0 0 0 177.2,-11.160761 Z" class="cls-2"/>
    <path style="fill:#ffffff" id="path26" d="m 173.91,-14.290761 a 39.65,39.65 0 0 1 -63.8,-0.4 49,49 0 0 1 63.8,0.4 z" class="cls-2"/>
    <path style="fill:#ffffff" id="path28" d="m 142.15,-38.280761 a 24.27,24.27 0 0 1 20.85,11.84 53.48,53.48 0 0 0 -41.4,-0.38 24.37,24.37 0 0 1 20.55,-11.46 z" class="cls-2"/>
    <path style="fill:#ffffff" id="path30" d="m 159,47.919238 a 30.12,30.12 0 0 1 -17.18,5.33 30.57,30.57 0 0 1 -17.46,-5.53 149.88,149.88 0 0 0 16.56,-41.6499989 c 0.42,0 0.85,0 1.27,0 v 0 A 151.65,151.65 0 0 0 159,47.919238 Z" class="cls-2"/>
    <path style="fill:#ffffff" id="path32" d="m 136.34,5.7192391 a 144.27,144.27 0 0 1 -26,54.7699989 49.06,49.06 0 0 1 -3.52,-72.099999 44.19,44.19 0 0 0 29.52,17.3300001 z" class="cls-2"/>
  </g>
</svg>
